<?xml version="1.0" standalone="no"?>
<!DOCTYPE svg PUBLIC "-//W3C//DTD SVG 20010904//EN"
 "http://www.w3.org/TR/2001/REC-SVG-20010904/DTD/svg10.dtd">
<svg version="1.0" xmlns="http://www.w3.org/2000/svg"
 width="800.000000pt" height="800.000000pt" viewBox="0 0 800.000000 800.000000"
 preserveAspectRatio="xMidYMid meet">
<metadata>
Created by potrace 1.11, written by Peter Selinger 2001-2013
</metadata>
<g transform="translate(0.000000,800.000000) scale(0.100000,-0.100000)"
fill="#000000" stroke="none">
<path d="M1995 6747 c-22 -13 -49 -40 -62 -62 l-23 -40 0 -2562 c0 -2028 3
-2568 13 -2590 18 -41 38 -62 77 -83 35 -18 118 -18 2110 -18 1978 -1 2077 0
2116 17 22 10 52 34 65 52 23 32 24 42 27 218 4 219 -4 255 -71 299 l-41 27
-1565 0 c-1536 1 -1567 1 -1596 20 -44 29 -54 40 -70 79 -13 31 -15 333 -15
2286 0 2189 -1 2252 -19 2288 -46 89 -46 89 -506 90 -396 1 -401 1 -440 -21z"/>
</g>
</svg>
