<?xml version="1.0" standalone="no"?>
<!DOCTYPE svg PUBLIC "-//W3C//DTD SVG 20010904//EN"
 "http://www.w3.org/TR/2001/REC-SVG-20010904/DTD/svg10.dtd">
<svg version="1.0" xmlns="http://www.w3.org/2000/svg"
 width="260.000000pt" height="260.000000pt" viewBox="0 0 260.000000 260.000000"
 preserveAspectRatio="xMidYMid meet">
<metadata>
Created by potrace 1.11, written by Peter Selinger 2001-2013
</metadata>
<g transform="translate(0.000000,260.000000) scale(0.100000,-0.100000)"
fill="#000000" stroke="none">
<path d="M557 2453 c-4 -3 -7 -320 -7 -703 l0 -697 350 -174 350 -173 0 -257
c0 -142 3 -264 6 -273 4 -11 19 -16 43 -16 36 0 41 6 411 460 206 253 375 465
375 472 0 6 -182 116 -405 245 l-404 233 -162 0 -161 0 -153 428 c-84 235
-157 435 -162 445 -9 17 -67 25 -81 10z m232 -481 c78 -217 141 -400 141 -409
0 -11 -180 -266 -274 -388 -14 -18 -15 37 -16 589 0 335 2 607 4 605 2 -2 68
-181 145 -397z m461 -612 c0 -104 -2 -190 -4 -190 -4 0 -255 342 -270 368 -6
9 24 12 133 12 l141 0 0 -190z m-151 -26 l139 -189 -144 -3 c-79 -1 -209 -1
-289 0 l-146 3 143 197 c79 108 146 193 151 189 4 -4 70 -93 146 -197z m546
-99 c121 -70 222 -129 224 -131 2 -2 -113 -4 -257 -4 l-262 0 0 143 c0 79 3
147 7 150 3 4 20 -2 37 -12 17 -11 130 -76 251 -146z m219 -164 c-12 -11 -478
-279 -499 -287 -13 -5 -15 13 -15 145 l0 151 262 0 c145 0 258 -4 252 -9z
m-618 -44 c2 -7 3 -77 2 -156 l-3 -143 -310 155 -310 156 308 0 c243 1 309 -2
313 -12z m691 -99 c-46 -57 -197 -242 -335 -411 l-252 -309 0 214 c0 117 4
218 8 225 8 13 641 382 655 383 4 0 -30 -46 -76 -102z"/>
</g>
</svg>
