<svg xmlns="http://www.w3.org/2000/svg" viewBox="0 0 1000 1000"><defs><style>.cls-1{isolation:isolate;}.cls-2{fill:#ccc;}.cls-3{fill:#f2f2f2;}.cls-4{fill:#f7931e;}.cls-5{fill:#999;}.cls-18,.cls-5{opacity:0.25;mix-blend-mode:multiply;}.cls-6{fill:#f3c1a0;}.cls-7{fill:#eaaf88;}.cls-8{fill:#ededed;}.cls-9{fill:#103754;}.cls-10{fill:#1b547f;}.cls-11{fill:#fafafa;stroke:#1d1d1b;stroke-linecap:round;stroke-miterlimit:10;}.cls-12{font-size:16.52px;font-family:CourierNewPS-BoldMT, Courier New;font-weight:700;}.cls-13{fill:#662d91;}.cls-14,.cls-17{letter-spacing:0em;}.cls-15{fill:#0071bc;}.cls-16,.cls-17{fill:#8cc63f;}.cls-18{fill:gray;}</style></defs><title>404</title><g class="cls-1"><g id="Hand"><rect class="cls-2" x="355" y="528" width="63" height="39.08" transform="translate(-163.96 165.21) rotate(-20)"/><rect class="cls-3" x="396.1" y="519.63" width="20.42" height="40.21" transform="translate(-160.1 171.52) rotate(-20)"/><rect class="cls-4" x="418" y="553" width="89" height="402" rx="10" ry="10" transform="translate(-229.99 203.66) rotate(-20)"/><path class="cls-5" d="M426.48,553.57a10,10,0,0,1,12.82,6L570,918.51a10,10,0,1,1-18.8,6.84l-130.65-359A10,10,0,0,1,426.48,553.57Z"/><path class="cls-6" d="M577.5,692.5c-131.87-28.25-184.62-46.65-204-59a55.47,55.47,0,0,0-21-8c-20.5-3.28-49,4.48-59,26-6.26,13.54-2.43,26.6-2,28,5.25,17,20.53,23.92,23,25a57.47,57.47,0,0,0-11,21,59,59,0,0,0,1,34,63.52,63.52,0,0,0,14,24c-1.71,2.74-11.88,19.7-6,41,6.2,22.44,25.24,31.72,28,33a88.06,88.06,0,0,0,8,39c3.52,7.57,7.28,15.64,16,22,12.63,9.21,26.95,8.5,32,8l174-31Q574,794,577.5,692.5Z"/><path class="cls-7" d="M718,691.5c-24.09-2.58-38.42-11-47-18-7.09-5.83-9.24-9.92-26-30-8.08-9.69-11-16-26-30s-46.48-39.27-67-52c-20.27-12.58-30.39-18.88-42-23-15.12-5.37-47.21-13.42-93.5.5l5.5,16c2.38-1.13,7.49-3.13,12-1,2.61,1.23,5,5,5,5s17.83,49.77,18.5,52c9.68,2.39,11,2,12,6s-19,8.37-23.5,8.5l-.69,0c-1.32,0-4.17.16-7.74.47-1.36.12-2.86.28-4.57.51-3.2.43-5.89.92-7.87,1.32-1.7.35-2.94.64-3.13.68-14.17,3.28-34,2-34,2-30.31-2-27.74-5.51-38-4-4.12.61-27.42,4-37,24-8.69,18.11.51,36.08,1,37a42.2,42.2,0,0,0,17,17,61.07,61.07,0,0,0-11,30c-.83,10.5,1.45,18.63,3,24a80.7,80.7,0,0,0,13,26c-1.82,3.27-10.49,19.59-5,40,5.8,21.55,23,31.35,26,33a119.45,119.45,0,0,0,7,32c4.42,12,7.87,21.33,17,29,11,9.27,24.06,10.8,31,11a335.44,335.44,0,0,0,74,2c31.94-2.72,39.77-8.12,85-14,25.26-3.28,46.12-5.9,73-5a329,329,0,0,1,74,11Z"/><rect class="cls-2" x="718" y="869" width="45" height="61" rx="10" ry="10"/><rect class="cls-8" x="717.5" y="687" width="45.5" height="198" rx="10" ry="10"/><rect class="cls-9" x="752.5" y="859" width="213" height="83.5" rx="10" ry="10"/><rect class="cls-10" x="752.5" y="664.5" width="213" height="232.5" rx="10" ry="10"/><ellipse class="cls-2" cx="798.5" cy="891.71" rx="23" ry="22.98"/><ellipse class="cls-8" cx="796" cy="895.21" rx="18" ry="18.21"/></g><g id="Lupe"><circle class="cls-11" cx="290.5" cy="298.5" r="219"/><text class="cls-12" transform="translate(114 69.14) scale(1.07 1)"><tspan class="cls-13" xml:space="preserve">     </tspan><tspan class="cls-14" x="49.56" y="0"> </tspan><tspan x="0" y="19.82" xml:space="preserve">    </tspan><tspan class="cls-15" x="39.64" y="19.82">.site.main</tspan><tspan x="138.76" y="19.82">{</tspan><tspan x="0" y="39.64" xml:space="preserve">        </tspan><tspan class="cls-13" x="79.29" y="39.64">grid-template-rows</tspan><tspan class="cls-14" x="257.69" y="39.64">: </tspan><tspan class="cls-16" x="277.51" y="39.64">1</tspan><tspan x="0" y="59.46" xml:space="preserve">        </tspan><tspan class="cls-13" x="79.29" y="59.46">grid-template-columns</tspan><tspan x="287.42" y="59.46">: </tspan><tspan class="cls-16" x="307.24" y="59.46"> </tspan><tspan x="0" y="79.28" xml:space="preserve">        </tspan><tspan class="cls-13" x="79.29" y="79.28">grid-template-areas</tspan><tspan x="267.6" y="79.28">: </tspan><tspan x="0" y="99.09" xml:space="preserve">            </tspan><tspan class="cls-4" x="118.93" y="99.09">&quot;. . . . .&quot;</tspan><tspan class="cls-4"><tspan x="0" y="118.91" xml:space="preserve">            &quot;. logo . list .&quot;</tspan></tspan><tspan class="cls-4" x="0" y="138.73" xml:space="preserve">            &quot;. . . . .&quot;</tspan><tspan x="227.96" y="138.73">;</tspan><tspan x="0" y="158.55" xml:space="preserve">    } </tspan><tspan x="0" y="178.37">}</tspan><tspan class="cls-13" x="0" y="218.01">@media</tspan><tspan x="59.47" y="218.01"> </tspan><tspan class="cls-16" x="69.38" y="218.01">screen</tspan><tspan x="128.84" y="218.01"> </tspan><tspan class="cls-15" x="138.76" y="218.01">and</tspan><tspan x="168.49" y="218.01" xml:space="preserve"> (</tspan><tspan class="cls-13" x="188.31" y="218.01">orientation</tspan><tspan x="297.33" y="218.01">: </tspan><tspan class="cls-15" x="317.16" y="218.01">landsc</tspan><tspan x="0" y="237.83" xml:space="preserve">    </tspan><tspan class="cls-15" x="39.64" y="237.83">.site.main</tspan><tspan x="138.76" y="237.83">{</tspan><tspan x="0" y="257.65" xml:space="preserve">        </tspan><tspan class="cls-13" x="79.29" y="257.65">grid-template-columns</tspan><tspan x="287.42" y="257.65">: </tspan><tspan class="cls-16" x="307.24" y="257.65">1fr 24r </tspan><tspan x="0" y="277.47" xml:space="preserve">    }</tspan><tspan x="0" y="297.28" xml:space="preserve">    </tspan><tspan class="cls-15" x="39.64" y="297.28">.info</tspan><tspan x="89.2" y="297.28" xml:space="preserve"> {</tspan><tspan x="0" y="317.1" xml:space="preserve">        </tspan><tspan class="cls-13" x="79.29" y="317.1">grid-template-rows</tspan><tspan class="cls-14" x="257.69" y="317.1">: </tspan><tspan class="cls-16" x="277.51" y="317.1">1fr 16re</tspan><tspan x="0" y="336.92" xml:space="preserve">    }</tspan><tspan x="0" y="356.74" xml:space="preserve">    </tspan><tspan x="0" y="376.56" xml:space="preserve">    </tspan><tspan class="cls-15" x="39.64" y="376.56">.logo</tspan><tspan x="89.2" y="376.56" xml:space="preserve"> {</tspan><tspan x="0" y="396.38" xml:space="preserve">        </tspan><tspan class="cls-13" x="79.29" y="396.38">width</tspan><tspan x="128.84" y="396.38">:</tspan><tspan class="cls-16" x="138.76" y="396.38">24rem</tspan><tspan x="188.31" y="396.38">;</tspan><tspan x="0" y="416.2" xml:space="preserve">        </tspan><tspan class="cls-13" x="79.29" y="416.2">height</tspan><tspan x="138.76" y="416.2">:</tspan><tspan class="cls-17" x="148.67" y="416.2">16rem</tspan><tspan x="198.22" y="416.2">;</tspan><tspan x="0" y="436.02" xml:space="preserve">    }</tspan></text><path class="cls-16" d="M290,48C151.93,48,40,159.93,40,298S151.93,548,290,548,540,436.07,540,298,428.07,48,290,48Zm0,460C174,508,80,414,80,298S174,88,290,88s210,94,210,210S406,508,290,508Z"/><path class="cls-18" d="M218.09,494.86C109.11,455.19,52.91,334.69,92.58,225.7L55,212C7.77,341.76,74.67,485.22,204.41,532.45S477.62,512.77,524.84,383l-37.59-13.68C447.59,478.33,327.08,534.53,218.09,494.86Z"/></g></g></svg>